<svg width="25" height="25" viewBox="0 0 25 25" fill="none" xmlns="http://www.w3.org/2000/svg">
<mask id="mask0_1312_1202" style="mask-type:alpha" maskUnits="userSpaceOnUse" x="0" y="0" width="25" height="25">
<rect x="0.110352" y="0.615234" width="24" height="24" fill="#D9D9D9"/>
</mask>
<g mask="url(#mask0_1312_1202)">
<path d="M11.1104 20.6152C10.8271 20.6152 10.5896 20.5194 10.3979 20.3277C10.2063 20.1361 10.1104 19.8986 10.1104 19.6152V13.6152L4.31043 6.21523C4.06043 5.8819 4.02293 5.5319 4.19793 5.16523C4.37293 4.79857 4.6771 4.61523 5.11043 4.61523H19.1104C19.5438 4.61523 19.8479 4.79857 20.0229 5.16523C20.1979 5.5319 20.1604 5.8819 19.9104 6.21523L14.1104 13.6152V19.6152C14.1104 19.8986 14.0146 20.1361 13.8229 20.3277C13.6313 20.5194 13.3938 20.6152 13.1104 20.6152H11.1104Z" fill="white"/>
</g>
</svg>
